#!OML:ASF E:/inclinewalkrobotboard/Project1/Captureday1/Session1/subject1.ASF
:FULLY-SPECIFIED
:DEGREES
188
root 0 0 0 -1.6458107678593217 -1.7581546953073772 -3.836703518391305
lowerback 20.320110581038673 2.286353585198748 -0.9061865218831444
upperback 3.699998849858367 3.064899867885238 0.46424609134858685
thorax -7.340076195101938 1.5037994843349811 0.4859133733615365
lowerneck -5.368547737195338 -5.480278233837395 -0.4125977809723852
upperneck 5.52687581885592 -7.7383279217978425 4.301495537050213
head 3.0938167473459615 -3.567080304455989 0.8973303511418859
rclavicle 1.2824400932105875E-15 -6.784135776812541E-16
rhumerus 14.468783193504722 -14.212922391626499 -48.287843457847586
rradius 115.15959179341648
rwrist -0.5233319073851579
rhand -19.45293340562207 -25.871679343122114
rfingers 7.125019999999957
rthumb 6.8823592255075425 -55.745841192578155
lclavicle -3.530909192360403E-16 -2.5654469915326744E-16
lhumerus -47.04302172796553 -6.078925919502036 79.84661228730533
lradius 61.68699752961611
lwrist 10.842647726889835
lhand -14.72624811164599 -19.511837551229437
lfingers 7.125019999999858
lthumb 11.348654356106405 10.356783338203902
rfemur -22.746092216873656 4.459278996808742 31.29862073339804
rtibia 55.96954383336543
rfoot -8.271936597919844 -7.350778427134816
rtoes 9.019341600216606
lfemur -13.022119202844767 -0.39989531453993665 -20.41093176114467
ltibia 45.522185382986486
lfoot 5.060153250984122 -11.714076925748184
ltoes 7.399454289189009
189
root 0 0 0 -2.0911890669235547 -1.9536729303081863 -3.793742901946205
lowerback 19.707199691861224 2.016465272164621 -0.9716902994148655
upperback 5.072528390987177 2.7083482816031 0.787880384174591
thorax -5.499641920031027 1.3325872897736195 0.9692646900386434
lowerneck -4.013867945741418 -5.097489497447475 -0.15626282211350523
upperneck 11.24368787293358 -7.271894867362854 3.9586674762909038
head 4.708296724249957 -3.2861554464917724 0.738905170271237
rclavicle 3.421226016407506E-15 9.032599512277198E-16
rhumerus -9.598892262483314 -19.52947362613669 -68.73088146298468
rradius 82.72701120956424
rwrist 21.416952441950208
rhand -19.180983348765853 -21.16772853580186
rfingers 7.125019999999949
rthumb 7.1553651292592315 -51.12199830821244
lclavicle 1.7091316062594864E-15 1.0608589707609524E-15
lhumerus -46.418156802398165 -6.358293473020665 80.54165959217961
lradius 61.51816658501771
lwrist 10.594872754388795
lhand -14.568844898141595 -19.947495266120328
lfingers 7.125019999999865
lthumb 11.496245840692577 9.880774826679579
rfemur -23.58598024361685 4.419058911848273 31.23312933674949
rtibia 56.31227240942725
rfoot -7.033081811966043 -6.56768537627483
rtoes 10.492600307009376
lfemur -11.662654976968554 -0.18626604427679538 -19.820023421558037
ltibia 48.73084188616098
lfoot 5.9013571756514445 -12.717119803247869
ltoes 4.437773354313158
190
root 0 0 0 -1.984378246053149 -1.8349745005294724 -3.7713464039795612
lowerback 19.85466403965745 1.9382908956960807 -1.0419243681514543
upperback 5.392507713096785 2.5998050671922446 0.8626692348938129
thorax -5.2243880583589615 1.2820929855626284 1.1033252416721262
lowerneck -3.3693567128904602 -5.035871463349299 -0.07098216905333102
upperneck 11.606877229604597 -7.167544425509562 3.928866062185472
head 4.709373986120387 -3.242332511500672 0.7302067048253089
rclavicle 2.283768615327589E-15 2.939079129087647E-16
rhumerus -8.46908088227196 -19.020834684966715 -67.79977135402116
rradius 84.58933640977939
rwrist 20.460401782397184
rhand -19.228861203608762 -21.39716939844445
rfingers 7.1250199999999495
rthumb 7.107518529742346 -51.352813779286436
lclavicle 6.914630662893198E-16 5.47699603525752E-16
lhumerus -46.070324175546986 -6.6384343363472835 80.96153845224951
lradius 61.654355685166294
lwrist 10.59413652561734
lhand -14.483228227749866 -20.295175871120257
lfingers 7.1250199999998705
lthumb 11.582090643753741 9.527275241110974
rfemur -24.422223948156184 3.669852717134253 30.573885813671037
rtibia 60.24846659432548
rfoot -5.652306207714167 -5.897099577423526
rtoes 11.43147631153461
lfemur -10.904620512352224 -0.06869360657141144 -19.365401653060864
ltibia 50.76682924986088
lfoot 6.343117493777537 -13.225987292507867
ltoes 2.304561154464089
191
root 0 0 0 -1.9887506229273602 -1.8747534196528268 -3.7157952271213777
lowerback 19.81173559041524 1.83806581759214 -1.0301943339550548
upperback 5.85110842172758 2.4651276261224853 0.9765505260877565
thorax -4.697771814983263 1.2205620386781548 1.2457920556373643
lowerneck -2.5473893236420064 -4.849561377794724 0.03943276578664502
upperneck 12.74427897462592 -6.903576880345922 3.881477525895414
head 4.914708996370105 -3.1147583374128853 0.7200738079456798
rclavicle 1.6336414823396186E-15 1.9800092259824453E-16
rhumerus -12.424875962782798 -19.55014367046449 -71.25286258495646
rradius 79.3209561531061
rwrist 24.07596120551341
rhand -19.11143798669135 -20.550554044623365
rfingers 7.125019999999947
rthumb 7.222382885049547 -50.50511603379903
lclavicle 6.70927001639016E-16 5.931629666213903E-16
lhumerus -45.19181046935966 -7.045197987666611 81.90700039546364
lradius 61.62742010384858
lwrist 10.289606604566083
lhand -14.265148168507007 -21.322268500240867
lfingers 7.125019999999886
lthumb 11.79516480903014 8.493844860319445
rfemur -24.465307244811285 3.574647331521316 30.456120597701098
rtibia 60.55036562553308
rfoot -5.2809037238660625 -5.543380391123509
rtoes 12.155761317098897
lfemur -10.618422358153117 0.30227212341201426 -18.4641297510544
ltibia 54.137072320472626
lfoot 6.305174301348266 -13.46176035255025
ltoes -0.8756276553281026
192
root 0 0 0 -1.9050779500984647 -1.9071403276080305 -3.6347474297167555
lowerback 19.860461528342093 1.7671937525999182 -0.9811700097884481
upperback 6.237530960768261 2.3688851482782827 1.0645434609045596
thorax -4.303736420559099 1.1790392075370892 1.3273070292434646
lowerneck -1.763049899888875 -4.689743642017794 0.0837067466581927
upperneck 13.211593772548131 -6.655690197292332 3.9066803086424957
head 4.894390747916941 -3.0072816827171565 0.7498996817663219
rclavicle 1.176106490197532E-15 1.1733985372186106E-16
rhumerus -14.782945569007369 -19.585771342720975 -73.50617823455534
rradius 76.03484256948947
rwrist 26.50998280502781
rhand -18.9940156118466 -19.84654598739644
rfingers 7.125019999999944
rthumb 7.33706726776874 -49.79094438022048
lclavicle 6.278640342095713E-16 7.1196482981274745E-16
lhumerus -44.02356067656908 -7.566682377670108 83.14872156744345
lradius 61.5800377608587
lwrist 9.87331271658575
lhand -13.979944398335375 -22.708860184619653
lfingers 7.125019999999907
lthumb 12.073015827903797 7.098179806150043
rfemur -24.26086365609854 3.8001572390908573 30.61344835846297
rtibia 58.825111202242226
rfoot -5.755980380473435 -5.4912327437595625
rtoes 12.55791896654825
lfemur -11.206555387796888 0.851426629699009 -17.452098889291953
ltibia 57.64676316699503
lfoot 5.618466718875737 -13.209555797052165
ltoes -3.7499163296305156
193
root 0 0 0 -2.1684212100261027 -2.62531586265421 -3.5916659424203106
lowerback 14.281879591814851 1.4858704488990377 -0.33999578717829104
upperback 3.801888420064675 2.0331525625547533 1.248434703068784
thorax -3.7968041360950915 1.0166478647786505 1.2631695340517206
lowerneck -5.801561047519029 -3.6463093359994265 -0.08678298146847947
upperneck 24.358672072872118 -5.537119525889725 3.149131846715105
head 9.241068125964388 -2.330743326008877 0.5070744618449184
rclavicle 7.175267727563608E-16 -3.889518150915021E-15
rhumerus -20.884783870857234 -20.661423454670285 -77.1680261184427
rradius 63.53284895182536
rwrist 22.97927033913215
rhand -16.37439380087546 -20.614491601950764
rfingers 7.125019999999914
rthumb 9.854966738686015 -50.28811252250446
lclavicle 7.408296758430777E-16 -1.829108059166479E-15
lhumerus -43.271829441541264 -4.852428811616504 84.3506524934097
lradius 55.438808059729396
lwrist 5.840564080974609
lhand -13.736115430094033 -21.91883949453495
lfingers 7.125019999999892
lthumb 12.29864198051026 7.950590853114635
rfemur -21.459480824669342 4.538741474482805 31.192975866199017
rtibia 51.95011517457351
rfoot -9.63449247405159 -6.093125185932854
rtoes 12.445529179202758
lfemur -13.527391349303016 2.1316479423485295 -14.896049281359726
ltibia 64.47931878166096
lfoot 3.5146486905350365 -12.005296671777142
ltoes -9.394571149371139
194
root 0 0 0 -1.704142639217272 -2.0341334594409517 -3.5169557114960326
lowerback 19.780510123804856 1.65314058395431 -0.8383335353541066
upperback 6.6919794202565885 2.2145949965761598 1.1780119254751027
thorax -3.770258844634945 1.1106104850126366 1.387056854193573
lowerneck -0.6630422160179439 -4.375537833573278 0.1601690502463114
upperneck 13.340922202703792 -6.161406666497361 3.915342266067877
head 4.67111930162378 -2.8005038243142217 0.8002223093129528
rclavicle -1.9587611999103856E-17 1.485750599849042E-16
rhumerus -16.755232082603975 -18.99216366412289 -75.27897203573546
rradius 73.42085259579115
rwrist 27.833761903020275
rhand -18.637160297919994 -19.424905369084602
rfingers 7.125019999999941
rthumb 7.680142391457494 -49.334896683733824
lclavicle 3.656419466752108E-17 9.912553153812126E-16
lhumerus -42.829735396410626 -7.953767543584754 84.63149628380907
lradius 61.148266509706694
lwrist 9.188926684371632
lhand -13.595582508743922 -24.05585832561229
lfingers 7.125019999999929
lthumb 12.441795061456396 5.723231059207771
rfemur -21.61358456269178 5.490002848398164 31.754678611238592
rtibia 47.150239839565195
rfoot -10.398245087473276 -6.5236535348767655
rtoes 12.194496022028389
lfemur -15.7417738903859 2.350648880261986 -15.342125996982155
ltibia 63.236647755480305
lfoot 2.460794426538829 -11.103398487257923
ltoes -6.599529191970291
